HIERARCHY
ROOT Hips
{
	OFFSET -0.001795 -0.223333 0.028219
	CHANNELS 6 Xposition Yposition Zposition Zrotation Yrotation Xrotation 
	JOINT LeftUpLeg
	{
		OFFSET 0.069520 -0.091406 -0.006815
		CHANNELS 3 Zrotation Yrotation Xrotation
		JOINT LeftLeg
		{
			OFFSET 0.034277 -0.375199 -0.004496
			CHANNELS 3 Zrotation Yrotation Xrotation
			JOINT LeftFoot
			{
				OFFSET -0.013596 -0.397961 -0.043693
				CHANNELS 3 Zrotation Yrotation Xrotation
				JOINT LeftToe
				{
					OFFSET 0.026358 -0.055791 0.119288
					CHANNELS 3 Zrotation Yrotation Xrotation
					End Site
					{
						OFFSET 0.000000 0.000000 0.000000
					}
				}
			}
		}
	}
	JOINT RightUpLeg
	{
		OFFSET -0.067670 -0.090522 -0.004320
		CHANNELS 3 Zrotation Yrotation Xrotation
		JOINT RightLeg
		{
			OFFSET -0.038290 -0.382569 -0.008850
			CHANNELS 3 Zrotation Yrotation Xrotation
			JOINT RightFoot
			{
				OFFSET 0.015774 -0.398415 -0.042312
				CHANNELS 3 Zrotation Yrotation Xrotation
				JOINT RightToe
				{
					OFFSET -0.025372 -0.048144 0.123348
					CHANNELS 3 Zrotation Yrotation Xrotation
					End Site
					{
						OFFSET 0.000000 0.000000 0.000000
					}
				}
			}
		}
	}
	JOINT Spine
	{
		OFFSET -0.002533 0.108963 -0.026696
		CHANNELS 3 Zrotation Yrotation Xrotation
		JOINT Spine1
		{
			OFFSET 0.005487 0.135180 0.001092
			CHANNELS 3 Zrotation Yrotation Xrotation
			JOINT Spine2
			{
				OFFSET 0.001457 0.052922 0.025425
				CHANNELS 3 Zrotation Yrotation Xrotation
				JOINT Neck
				{
					OFFSET -0.002778 0.213870 -0.042857
					CHANNELS 3 Zrotation Yrotation Xrotation
					JOINT Head
					{
						OFFSET 0.005152 0.064970 0.051349
						CHANNELS 3 Zrotation Yrotation Xrotation
						End Site
						{
							OFFSET 0.000000 0.000000 0.000000
						}
					}
				}
				JOINT LeftShoulder
				{
					OFFSET 0.078845 0.121749 -0.034090
					CHANNELS 3 Zrotation Yrotation Xrotation
					JOINT LeftArm
					{
						OFFSET 0.090977 0.030469 -0.008868
						CHANNELS 3 Zrotation Yrotation Xrotation
						JOINT LeftForeArm
						{
							OFFSET 0.259612 -0.012772 -0.027456
							CHANNELS 3 Zrotation Yrotation Xrotation
							JOINT LeftHand
							{
								OFFSET 0.249234 0.008986 -0.001171
								CHANNELS 3 Zrotation Yrotation Xrotation
								End Site
								{
									OFFSET 0.000000 0.000000 0.000000
								}
							}
						}
					}
				}
				JOINT RightShoulder
				{
					OFFSET -0.081759 0.118833 -0.038615
					CHANNELS 3 Zrotation Yrotation Xrotation
					JOINT RightArm
					{
						OFFSET -0.096012 0.032551 -0.009143
						CHANNELS 3 Zrotation Yrotation Xrotation
						JOINT RightForeArm
						{
							OFFSET -0.253742 -0.013329 -0.021401
							CHANNELS 3 Zrotation Yrotation Xrotation
							JOINT RightHand
							{
								OFFSET -0.255298 0.007772 -0.005559
								CHANNELS 3 Zrotation Yrotation Xrotation
								End Site
								{
									OFFSET 0.000000 0.000000 0.000000
								}
							}
						}
					}
				}
			}
		}
	}
}
MOTION
Frames: 12
Frame Time: 0.050000
0.000000 0.950949 0.000000 -0.310366 -5.652881 -0.049972 1.219641 0.333596 3.852022 -0.606222 0.164879 -3.232510 -2.279597 -2.064387 6.258808 0.000000 0.000000 0.000000 0.640912 -0.288082 2.689922 -0.358326 -0.054262 -2.069080 3.328141 3.111960 7.560910 0.000000 0.000000 0.000000 4.807836 -0.032041 0.018419 -3.090058 1.425467 -2.701456 -3.009785 6.259015 6.508319 8.173187 -3.029868 -18.761833 0.000000 0.000000 0.000000 -22.801138 -4.830324 -0.582506 -49.038223 -5.002137 -3.703452 -7.845212 -19.496690 1.952041 0.000000 0.000000 0.000000 21.654975 -1.957059 -2.035591 57.311717 5.582097 -3.309256 7.215155 22.698402 2.273183 0.000000 0.000000 0.000000 
-0.000048 0.950709 0.000526 -0.564245 -6.744258 0.376791 1.722856 0.353865 4.220308 -1.173806 0.259574 -4.755899 -2.427679 -2.373339 6.395240 0.000000 0.000000 0.000000 0.576694 -0.181485 1.635224 -0.031552 -0.049669 -1.308232 3.408002 3.413256 7.177777 0.000000 0.000000 0.000000 5.504435 0.024517 -0.688666 -3.315437 1.545718 -1.728982 -3.750436 7.323702 5.566208 9.498142 -3.479716 -19.996210 0.000000 0.000000 0.000000 -23.457107 -5.044736 -0.805325 -48.335057 -4.814677 -3.543681 -8.488446 -19.391667 2.014913 0.000000 0.000000 0.000000 21.331374 -2.777352 -2.316538 58.758869 5.074171 -3.519957 7.061393 23.137898 2.328406 0.000000 0.000000 0.000000 
-0.000055 0.950138 0.000825 -0.314732 -6.356210 0.465889 1.664772 0.333803 4.001958 -1.589535 0.280999 -4.249512 -2.501994 -2.819736 5.606272 0.000000 0.000000 0.000000 0.777580 -0.206106 1.778442 -0.684951 -0.007432 -1.562164 3.000811 2.783749 6.819371 0.000000 0.000000 0.000000 5.417978 0.034313 -0.831159 -3.008648 1.375333 -2.965838 -4.173872 7.304900 6.236044 8.942260 -3.349285 -18.924714 0.000000 0.000000 0.000000 -22.202238 -4.772227 -0.835862 -49.334481 -4.623664 -3.798101 -7.766041 -18.943270 1.850328 0.000000 0.000000 0.000000 21.947240 -2.267886 -1.992728 57.978772 4.655099 -3.791637 6.875675 22.772765 2.257922 0.000000 0.000000 0.000000 
-0.000070 0.949932 0.001051 -0.227371 -6.247778 0.381832 1.888947 0.371593 4.542593 -2.146133 0.345354 -5.142428 -3.177238 -3.822135 6.252115 0.000000 0.000000 0.000000 0.529306 -0.200362 1.850048 -0.213914 -0.042555 -1.500411 2.971782 2.696954 6.877972 0.000000 0.000000 0.000000 5.326708 0.054186 -1.040505 -2.883985 1.336103 -2.227216 -4.377165 7.420235 5.523731 9.413888 -3.494338 -19.370527 0.000000 0.000000 0.000000 -22.426237 -4.303489 -1.245927 -49.277678 -5.000913 -3.543619 -8.033668 -18.922862 1.873518 0.000000 0.000000 0.000000 21.624118 -2.602580 -2.113810 57.935956 4.559081 -3.759386 7.695776 22.708554 2.406906 0.000000 0.000000 0.000000 
0.000043 0.949947 0.001117 -0.199392 -6.012999 0.251169 1.761623 0.374136 4.527301 -1.932141 0.328508 -5.181680 -2.975974 -3.491995 6.090581 0.000000 0.000000 0.000000 0.458037 -0.207072 1.956901 -0.083803 -0.057390 -1.611373 2.843777 2.629659 6.569369 0.000000 0.000000 0.000000 5.289264 0.049458 -0.967816 -2.899727 1.347614 -2.110598 -4.326194 7.547384 5.305462 9.199730 -3.429821 -18.850081 0.000000 0.000000 0.000000 -22.164095 -4.490710 -1.194666 -49.222209 -5.233060 -3.411998 -8.167486 -19.060891 1.897734 0.000000 0.000000 0.000000 21.488805 -2.553174 -2.013231 57.931047 4.282255 -3.875580 7.730912 22.375664 2.377875 0.000000 0.000000 0.000000 
0.000205 0.949838 0.001228 -0.213028 -5.652022 0.101884 1.784939 0.388325 4.730709 -2.074495 0.341865 -5.371585 -3.156476 -3.819080 6.066180 0.000000 0.000000 0.000000 0.391931 -0.231990 2.247980 0.158290 -0.079262 -1.675624 2.923930 2.691681 6.815149 0.000000 0.000000 0.000000 5.323262 0.047410 -0.919737 -2.830083 1.311798 -2.442299 -4.302838 7.346978 5.737475 8.921741 -3.276277 -18.879189 0.000000 0.000000 0.000000 -22.703701 -4.464131 -1.254904 -48.828972 -5.474485 -3.307704 -8.175689 -19.709431 1.968453 0.000000 0.000000 0.000000 21.563682 -2.381015 -1.910961 57.874708 4.385875 -3.873316 7.543775 21.989588 2.298089 0.000000 0.000000 0.000000 
0.000414 0.949682 0.001303 -0.252882 -5.443753 -0.029654 1.739995 0.398779 4.844542 -1.944862 0.335645 -5.584096 -3.187037 -3.725530 6.362136 0.000000 0.000000 0.000000 0.447364 -0.244784 2.348393 0.136666 -0.075270 -1.612781 3.065676 3.070816 6.738253 0.000000 0.000000 0.000000 5.356950 0.037811 -0.788118 -2.918798 1.353687 -2.474832 -4.359901 7.186736 5.813340 8.998600 -3.266062 -19.224786 0.000000 0.000000 0.000000 -22.689423 -4.472111 -1.234888 -48.870190 -5.694438 -3.233792 -8.169909 -20.252849 2.022732 0.000000 0.000000 0.000000 21.431295 -2.280815 -1.852224 58.220158 4.408487 -3.879070 7.497095 22.059457 2.298451 0.000000 0.000000 0.000000 
0.000552 0.949611 0.001451 -0.240852 -4.892419 -0.047597 1.693060 0.396324 4.849902 -1.961539 0.331827 -5.469284 -3.433413 -4.287376 6.072630 0.000000 0.000000 0.000000 0.547347 -0.260508 2.444348 0.045204 -0.068190 -1.619086 2.951422 3.055254 6.442731 0.000000 0.000000 0.000000 5.206419 0.044953 -0.885594 -2.819053 1.310797 -2.548274 -4.414711 6.800393 6.023944 8.822143 -3.239470 -18.894267 0.000000 0.000000 0.000000 -22.954932 -4.732863 -1.081934 -48.593516 -6.048029 -3.092089 -8.223117 -20.826537 2.096900 0.000000 0.000000 0.000000 21.380855 -2.300810 -1.881112 58.225126 4.479398 -3.859353 7.648025 22.220718 2.343641 0.000000 0.000000 0.000000 
0.000522 0.949628 0.001641 -0.284482 -4.902427 -0.131278 1.666130 0.398894 4.860280 -1.846888 0.323360 -5.458265 -3.427827 -4.187642 6.261627 0.000000 0.000000 0.000000 0.534235 -0.272230 2.572741 0.129493 -0.078535 -1.709803 3.012097 3.182082 6.453321 0.000000 0.000000 0.000000 5.148947 0.043518 -0.854034 -2.757173 1.282345 -2.574167 -4.427708 6.576591 6.050857 8.641672 -3.203713 -18.637662 0.000000 0.000000 0.000000 -23.013184 -4.692725 -1.038668 -48.568681 -6.333294 -2.999082 -8.344586 -21.025020 2.148249 0.000000 0.000000 0.000000 21.113538 -2.225428 -1.882500 58.286346 4.504945 -3.836342 7.740469 22.713201 2.414432 0.000000 0.000000 0.000000 
0.000286 0.949446 0.001957 -0.328851 -4.951483 -0.178846 1.633601 0.397253 4.817192 -1.770721 0.314422 -5.293221 -3.467234 -4.359280 6.066237 0.000000 0.000000 0.000000 0.570183 -0.275499 2.588280 0.111847 -0.075506 -1.667825 2.961753 3.223193 6.198824 0.000000 0.000000 0.000000 5.136869 0.053156 -0.953245 -2.784782 1.295240 -2.543195 -4.408256 6.363679 6.153503 8.595961 -3.233793 -18.484062 0.000000 0.000000 0.000000 -22.898810 -4.741858 -0.913883 -48.528601 -6.658379 -2.902907 -8.621484 -21.373640 2.246197 0.000000 0.000000 0.000000 21.004201 -2.106064 -1.870656 58.224629 4.553980 -3.809625 7.983831 23.032613 2.490713 0.000000 0.000000 0.000000 
-0.000115 0.949453 0.002235 -0.337444 -5.192611 -0.229773 1.632544 0.409695 4.932814 -1.770582 0.313761 -5.215217 -3.425129 -4.344630 5.965900 0.000000 0.000000 0.000000 0.631363 -0.281726 2.624632 0.137676 -0.075551 -1.615136 3.038906 3.300664 6.312724 0.000000 0.000000 0.000000 5.087611 0.054194 -0.952328 -2.763486 1.283960 -2.535756 -4.422821 6.341616 6.148464 8.608846 -3.271816 -18.404904 0.000000 0.000000 0.000000 -23.022077 -4.846644 -0.821450 -48.373061 -6.839951 -2.830812 -8.871081 -21.453749 2.307399 0.000000 0.000000 0.000000 20.989840 -2.157550 -1.939213 58.079189 4.453267 -3.848847 8.295874 23.391299 2.590802 0.000000 0.000000 0.000000 
-0.000516 0.949414 0.002440 -0.374230 -5.439790 -0.200921 1.621091 0.407315 4.875609 -1.705769 0.303111 -4.915726 -3.411514 -4.442843 5.743142 0.000000 0.000000 0.000000 0.787842 -0.280376 2.529639 0.129380 -0.066938 -1.407606 3.050785 3.412434 6.139673 0.000000 0.000000 0.000000 5.098117 0.065120 -1.074595 -2.757199 1.282287 -2.363972 -4.389176 6.162040 6.007782 8.585722 -3.309146 -18.270646 0.000000 0.000000 0.000000 -23.164673 -4.799888 -0.774094 -48.279706 -6.966362 -2.782842 -8.896151 -21.464121 2.323812 0.000000 0.000000 0.000000 20.922139 -2.217833 -2.056244 57.956699 4.332515 -3.873109 8.415632 23.582165 2.623894 0.000000 0.000000 0.000000 
